# xmcd CD database file
#
# Track frame offsets:
#	150
#	29816
#	50658
#	79512
#	102517
#	135190
#	156815
#	188958
#	222761
#	252418
#	274947
#	305603
#
# Disc length: 4323 seconds
#
# Revision: 1
# Processed by: cddbd v1.5.1PL0 Copyright (c) Steve Scherf et al.
# Submitted via: CDex 1.50beta9
#
DISCID=ab10e10c
DTITLE=Glenn Ferris - Skin Me
DYEAR=2004
DGENRE=Jazz
TTITLE0=Boy Boy
TTITLE1=Saint James Infirmary
TTITLE2=Memoreez
TTITLE3=Femmes, Je vous aime
TTITLE4=Skin Me!
TTITLE5=Chimney Sweep
TTITLE6=Pastel Blues
TTITLE7=When the night turns Into Day
TTITLE8=Sud-Ouest Jump
TTITLE9=Black Trombone
TTITLE10=Key of Blue
TTITLE11=Purge
EXTD=YEAR: 2004
EXTT0=
EXTT1=
EXTT2=
EXTT3=
EXTT4=
EXTT5=
EXTT6=
EXTT7=
EXTT8=
EXTT9=
EXTT10=
EXTT11=
PLAYORDER=
